# xmcd
#
# Track frame offsets:
#	150
#	18315
#	38890
#	58848
#	81513
#	100984
#	118219
#	137844
#	153444
#	178590
#	193669
#	219084
#	237498
#	255614
#	269728
#
# Disc length: 3813 seconds
#
# Revision: 0
# Processed by: cddbd v1.5.2PL0 Copyright (c) Steve Scherf et al.
# Submitted via: EasyCDDAExtractor 16.0.6.1
#
DISCID=de0ee30f
DTITLE=Μπικάκης Στέλιος - Οι μεγάλες επιτυχίες-Σ. Μπικάκης 2
DYEAR=2013
DGENRE=Κρητική
TTITLE0=Με νταούλια και ζουρνάδες [Αντ. Ζαχαράκης/Π. Ίμβριος-ίδιος]
TTITLE1=Κρητών νόστος [Σ. Μπικάκης]
TTITLE2=Η κοπελιά και ο ουρανός [Σ. Μπικάκης]
TTITLE3=Έλα καϋμέ, τραγούδησε [Γ. Γιοκαρίνης-Μιχ. Αβατάγγελος]
TTITLE4=Φιλί, φιλί [Σ. Μπικάκης]
TTITLE5=Της αγάπης τα φτερά [Σ. Μπικάκης]
TTITLE6=Μάγισσα καρδιά [Γ. Γιοκαρίνης/Σ. Μπικάκης-ίδιος]
TTITLE7=Κρητικά ακρογιάλια [Σ. Μπικάκης/Ηλ. Κατσαβίδης-ίδιος]
TTITLE8=Φιλαράκια [Γ. Γιοκαρίνης/Σ. Μπικάκης-ίδιος]
TTITLE9=Ομόνοια [Πητ Παπαδάκος]
TTITLE10=Παραδοσιακές κοντυλιές [παραδ. Κρήτης]
TTITLE11=Στιγμές από το στούντιο-Οι πολιτικοί [Σ. Μπικάκης]
TTITLE12=Οράματα [Γ. Γιοκαρίνης/Σ. Μπικάκης-ίδιος]
TTITLE13=Μαχαίρι είναι ο έρωτας [Σ. Μπικάκης]
TTITLE14=Εκτός δικτύου [Σ. Μπικάκης]
EXTD=
EXTT0=
EXTT1=
EXTT2=
EXTT3=
EXTT4=
EXTT5=
EXTT6=
EXTT7=
EXTT8=
EXTT9=
EXTT10=
EXTT11=
EXTT12=
EXTT13=
EXTT14=
PLAYORDER=
